<?xml version="1.0" encoding="utf-8"?>
<svg version="1.1" xmlns:xlink="http://www.w3.org/1999/xlink" width="21px" height="14px" xmlns="http://www.w3.org/2000/svg">
  <g transform="matrix(1 0 0 1 -52 -565 )">
    <path d="M 20.6206451612903 1.93265993265993  C 20.8735483870968 2.15263748597082  21 2.41975308641975  21 2.73400673400673  C 21 3.04826038159371  20.8735483870968 3.31537598204265  20.6206451612903 3.53535353535353  L 10.8116129032258 12.0673400673401  L 8.96903225806452 13.6700336700337  C 8.71612903225807 13.8900112233446  8.40903225806452 14  8.04774193548387 14  C 7.68645161290323 14  7.37935483870968 13.8900112233446  7.12645161290323 13.6700336700337  L 5.28387096774193 12.0673400673401  L 0.379354838709677 7.8013468013468  C 0.126451612903226 7.58136924803591  0 7.31425364758698  0 7  C 0 6.68574635241302  0.126451612903226 6.41863075196409  0.379354838709677 6.1986531986532  L 2.22193548387097 4.5959595959596  C 2.47483870967742 4.37598204264871  2.78193548387097 4.26599326599326  3.14322580645161 4.26599326599327  C 3.50451612903226 4.26599326599326  3.81161290322581 4.37598204264871  4.06451612903226 4.5959595959596  L 8.04774193548387 8.07239057239057  L 16.9354838709677 0.32996632996633  C 17.1883870967742 0.109988776655443  17.4954838709677 0  17.8567741935484 0  C 18.218064516129 0  18.5251612903226 0.109988776655443  18.778064516129 0.32996632996633  L 20.6206451612903 1.93265993265993  Z " fill-rule="nonzero" fill="#00bfbf" stroke="none" transform="matrix(1 0 0 1 52 565 )" />
  </g>
</svg>