<?xml version="1.0" encoding="utf-8"?>
<svg version="1.1" xmlns:xlink="http://www.w3.org/1999/xlink" width="21px" height="14px" xmlns="http://www.w3.org/2000/svg">
  <g transform="matrix(1 0 0 1 -40 -156 )">
    <path d="M 9.79372197309415 10.5  L 10.4529147982063 10.5  L 11.8183856502242 9.34659090909091  L 10.0291479820628 7.83522727272728  L 8.66367713004483 8.98863636363637  L 8.66367713004483 9.54545454545456  L 9.79372197309415 9.54545454545456  L 9.79372197309415 10.5  Z M 15.6205156950673 3.66903409090909  C 15.7539237668161 3.5563446969697  15.7578475336323 3.4469696969697  15.6322869955157 3.34090909090909  C 15.5067264573991 3.23484848484848  15.3772421524664 3.23816287878787  15.2438340807175 3.35085227272728  L 11.1238789237668 6.83096590909091  C 10.9904708520179 6.9436553030303  10.9865470852018 7.0530303030303  11.1121076233184 7.15909090909091  C 11.237668161435 7.26515151515152  11.3671524663677 7.26183712121211  11.5005605381166 7.14914772727272  L 15.6205156950673 3.66903409090909  Z M 16.3385650224215 8.95880681818181  C 16.4955156950673 9.01183712121211  16.5739910313902 9.10795454545456  16.5739910313902 9.24715909090909  L 16.5739910313902 11.1363636363636  C 16.5739910313902 11.9251893939394  16.242432735426 12.5996685606061  15.5793161434978 13.1598011363636  C 14.9161995515695 13.7199337121212  14.1177130044843 14  13.1838565022422 14  L 3.39013452914798 14  C 2.45627802690583 14  1.65779147982063 13.7199337121212  0.994674887892373 13.1598011363636  C 0.331558295964117 12.5996685606061  0 11.9251893939394  0 11.1363636363636  L 0 2.86363636363637  C 0 2.07481060606061  0.331558295964117 1.40033143939395  0.994674887892373 0.840198863636371  C 1.65779147982063 0.280066287878777  2.45627802690583 0  3.39013452914798 0  L 13.1838565022422 0  C 13.6782511210762 0  14.137331838565 0.0828598484848522  14.5610986547085 0.248579545454536  C 14.6788116591928 0.294981060606055  14.7494394618834 0.37121212121213  14.7729820627803 0.477272727272722  C 14.7965246636771 0.589962121212131  14.7612107623318 0.686079545454536  14.6670403587444 0.765625  L 14.0902466367713 1.25284090909091  C 13.9803811659193 1.34564393939395  13.8548206278027 1.37215909090909  13.7135650224215 1.33238636363637  C 13.5330717488789 1.29261363636363  13.3565022421525 1.27272727272728  13.1838565022422 1.27272727272728  L 3.39013452914798 1.27272727272728  C 2.87219730941703 1.27272727272728  2.42881165919283 1.42850378787878  2.05997757847534 1.74005681818181  C 1.69114349775785 2.05160984848485  1.5067264573991 2.42613636363637  1.5067264573991 2.86363636363637  L 1.5067264573991 11.1363636363636  C 1.5067264573991 11.5738636363636  1.69114349775785 11.9483901515151  2.05997757847534 12.2599431818182  C 2.42881165919283 12.5714962121212  2.87219730941703 12.7272727272727  3.39013452914798 12.7272727272727  L 13.1838565022422 12.7272727272727  C 13.7017937219731 12.7272727272727  14.1451793721973 12.5714962121212  14.5140134529148 12.2599431818182  C 14.8828475336323 11.9483901515151  15.067264573991 11.5738636363636  15.067264573991 11.1363636363636  L 15.067264573991 9.88352272727272  C 15.067264573991 9.79734848484848  15.1025784753363 9.72443181818181  15.1732062780269 9.66477272727272  L 15.9265695067265 9.02840909090909  C 16.0442825112108 8.92897727272728  16.1816143497758 8.90577651515152  16.3385650224215 8.95880681818181  Z M 7.53363228699552 8.59090909090909  L 12.7636700156852 4.17311207008405  L 15.4439461883408 1.90909090909091  L 18.8340807174888 4.77272727272728  L 10.9237668161435 11.4545454545454  L 7.53363228699552 11.4545454545454  L 7.53363228699552 8.59090909090909  Z M 21 2.54545454545454  C 21 2.81060606060606  20.890134529148 3.03598484848485  20.670403587444 3.22159090909091  L 19.5874439461884 4.13636363636363  L 16.1973094170404 1.27272727272728  L 17.280269058296 0.357954545454536  C 17.5 0.172348484848481  17.7668161434978 0.0795454545454638  18.0807174887892 0.0795454545454638  C 18.3946188340807 0.0795454545454638  18.6614349775785 0.172348484848481  18.8811659192825 0.357954545454536  L 20.670403587444 1.86931818181819  C 20.890134529148 2.05492424242424  21 2.28030303030304  21 2.54545454545454  Z " fill-rule="nonzero" fill="#000000" stroke="none" transform="matrix(1 0 0 1 40 156 )" />
  </g>
</svg>